<?xml version="1.0" standalone="no"?>
<!DOCTYPE svg PUBLIC "-//W3C//DTD SVG 20010904//EN"
 "http://www.w3.org/TR/2001/REC-SVG-20010904/DTD/svg10.dtd">
<svg version="1.0" xmlns="http://www.w3.org/2000/svg"
 width="500.000000pt" height="500.000000pt" viewBox="0 0 500.000000 500.000000"
 preserveAspectRatio="xMidYMid meet">

<g transform="translate(0.000000,500.000000) scale(0.100000,-0.100000)"
fill="#000000" stroke="none">
<path d="M2300 3707 c-41 -13 -112 -42 -157 -66 -144 -75 -277 -238 -325 -398
-9 -32 -18 -43 -32 -43 -11 0 -49 -7 -85 -16 -235 -58 -403 -263 -418 -511 -7
-110 7 -192 48 -277 77 -160 201 -262 377 -307 67 -17 112 -19 407 -19 l332 0
-3 -82 c-1 -46 -3 -91 -3 -100 -1 -16 -12 -18 -91 -18 -83 0 -91 -2 -105 -24
-19 -28 -10 -54 22 -67 36 -14 439 -12 466 2 30 16 38 30 31 54 -9 30 -8 30
-112 35 l-97 5 0 95 0 95 62 3 62 3 128 -96 c70 -53 136 -102 145 -110 50 -41
90 -45 112 -13 12 17 16 48 16 120 l0 98 73 0 c232 1 450 148 530 354 72 188
45 402 -68 551 -92 120 -229 201 -371 220 -49 6 -50 7 -63 52 -54 182 -201
346 -380 426 -140 62 -357 76 -501 34z m330 -87 c103 -23 225 -86 298 -154 69
-64 138 -188 162 -291 16 -67 24 -75 84 -75 145 0 317 -105 388 -236 99 -184
68 -404 -78 -552 -102 -102 -211 -142 -390 -142 -110 0 -119 -10 -111 -120 4
-45 2 -82 -3 -85 -5 -3 -67 40 -137 96 -71 57 -130 105 -133 107 -3 2 4 8 15
15 49 27 117 104 146 165 26 54 32 80 36 163 5 86 4 102 -12 119 -22 24 -42
25 -67 3 -14 -13 -18 -31 -18 -94 0 -185 -108 -305 -286 -317 -106 -7 -174 17
-246 88 -67 66 -88 123 -88 240 0 46 -5 81 -12 88 -18 18 -53 14 -73 -8 -28
-30 -16 -194 18 -273 25 -55 123 -167 146 -167 6 0 11 -4 11 -10 0 -13 -450
-13 -521 0 -162 30 -307 160 -355 319 -23 78 -27 151 -11 227 20 93 49 153
106 216 84 93 189 146 315 157 77 7 73 3 106 106 45 143 128 256 242 329 47
30 165 77 223 89 40 9 201 6 245 -3z"/>
<path d="M2400 3148 c-50 -29 -79 -58 -101 -100 -17 -34 -19 -61 -19 -310 0
-244 2 -277 19 -313 69 -150 288 -165 386 -27 l30 44 3 289 c3 317 4 315 -60
378 -18 18 -47 40 -65 47 -49 21 -151 17 -193 -8z"/>
</g>
</svg>
